# xmcd
#
# Track frame offsets:
#	150
#	22830
#	36130
#	52033
#	69868
#	85074
#	98138
#	113767
#	130460
#	148316
#	165480
#	180709
#	198363
#	215564
#	228800
#	244979
#	266801
#	280559
#
# Disc length: 3956 seconds
#
# Revision: 1
# Processed by: cddbd v1.5.1PL2 Copyright (c) Steve Scherf et al.
# Submitted via: audiograbber 1.83.01
#
DISCID=fc0f7212
DTITLE=Various Artist - Country Radio January 2002
DYEAR=2002
DGENRE=Country
TTITLE0=Alan Jackson - Where Were You (When The World ..)
TTITLE1=Blackhawk - Days Of America
TTITLE2=BR5-49 - Little Good News, A
TTITLE3=Martina McBride - Blessed
TTITLE4=Trisha Yearwood - Don Henley - Inside Out
TTITLE5=Emerson Drive - I Should Be Sleeping
TTITLE6=Tim McGraw - Cowboy In Me, The
TTITLE7=Leahy - Moment
TTITLE8=Kellie Coffey - When You Lie Next To Me
TTITLE9=Bruce Guthro - Livin' A Lie
TTITLE10=Ty Herndon - Heather's Wall
TTITLE11=Adam Gregory - It Ain't Cool
TTITLE12=Monia - With This Kiss
TTITLE13=Keith Perry - Mama Was Right
TTITLE14=Lyle Lovett - San Antonio Girl
TTITLE15=Hank Williams Jr. - America Will Survive
TTITLE16=Leann Rimes - God Bless America
TTITLE17=Shelby Lynne - Wall In Your Heart
EXTD=
EXTT0=
EXTT1=
EXTT2=
EXTT3=
EXTT4=
EXTT5=
EXTT6=
EXTT7=
EXTT8=
EXTT9=
EXTT10=
EXTT11=
EXTT12=
EXTT13=
EXTT14=
EXTT15=
EXTT16=
EXTT17=
PLAYORDER=
